<?xml version="1.0" encoding="UTF-8"?>
<svg width="13px" height="14px" viewBox="0 0 13 14" version="1.1" xmlns="http://www.w3.org/2000/svg" xmlns:xlink="http://www.w3.org/1999/xlink">
    <!-- Generator: Sketch 48.2 (47327) - http://www.bohemiancoding.com/sketch -->
    <title>Page 1</title>
    <desc>Created with Sketch.</desc>
    <defs></defs>
    <g id="1.1---Sign-In---Null" stroke="none" stroke-width="1" fill="none" fill-rule="evenodd" transform="translate(-500.000000, -359.000000)">
        <g id="Group" transform="translate(480.000000, 339.000000)" fill="#656E74">
            <path d="M32.0875463,31.7765095 C32.0875463,32.4633053 31.8786487,33.0055799 31.4608479,33.403349 C31.0430471,33.8011183 30.4878965,34 29.7953771,34 L22.2921692,34 C21.5996505,34 21.0444988,33.8011183 20.6266982,33.403349 C20.2088973,33.0055799 20,32.4633053 20,31.7765095 C20,31.4731744 20.0100156,31.1769988 20.0300472,30.887971 C20.0500787,30.5989451 20.0901412,30.2870295 20.1502358,29.9522165 C20.2103306,29.6174036 20.2861631,29.3069207 20.3777359,29.0207543 C20.4693087,28.7345899 20.5923577,28.4555829 20.7468869,28.1837258 C20.9014158,27.9118705 21.0788355,27.6800794 21.279151,27.4883487 C21.4794664,27.2966179 21.7241337,27.1435226 22.0131603,27.0290568 C22.3021862,26.914591 22.6212554,26.8573581 22.9703775,26.8573581 C23.0218875,26.8573581 23.1420743,26.9188832 23.3309436,27.0419333 C23.5198129,27.1649854 23.7330026,27.3023428 23.9705185,27.4540093 C24.2080363,27.6056778 24.5170885,27.7430333 24.8976885,27.8660854 C25.2782886,27.9891355 25.6603117,28.0506605 26.0437731,28.0506605 C26.4272346,28.0506605 26.8092596,27.9891355 27.1898577,27.8660854 C27.5704578,27.7430333 27.8795119,27.6056778 28.1170278,27.4540093 C28.3545456,27.3023428 28.5677353,27.1649854 28.7566027,27.0419333 C28.945472,26.9188832 29.0656607,26.8573581 29.1171687,26.8573581 C29.4662909,26.8573581 29.7853601,26.914591 30.074386,27.0290568 C30.3634138,27.1435226 30.6080814,27.2966179 30.8083965,27.4883487 C31.0087116,27.6800794 31.1861312,27.9118705 31.3406592,28.1837258 C31.4951892,28.4555829 31.6182374,28.7345899 31.7098115,29.0207543 C31.8013838,29.3069207 31.8772161,29.6174036 31.9373104,29.9522165 C31.9974048,30.2870295 32.0374689,30.5989451 32.0574991,30.887971 C32.0775312,31.1769988 32.0875463,31.4731744 32.0875463,31.7765095 Z M29.3403774,23.2966042 C29.3403774,24.2066094 29.0184467,24.983534 28.3745758,25.627405 C27.7307049,26.2712778 26.9537783,26.5932085 26.0437731,26.5932085 C25.1337679,26.5932085 24.3568433,26.2712778 23.7129724,25.627405 C23.0690996,24.983534 22.7471689,24.2066094 22.7471689,23.2966042 C22.7471689,22.386599 23.0690996,21.6096725 23.7129724,20.9658016 C24.3568433,20.3219307 25.1337679,20 26.0437731,20 C26.9537783,20 27.7307049,20.3219307 28.3745758,20.9658016 C29.0184467,21.6096725 29.3403774,22.386599 29.3403774,23.2966042 Z" id="Page-1"></path>
        </g>
    </g>
</svg>