<?xml version="1.0" encoding="UTF-8"?>
<svg width="17px" height="15px" viewBox="0 0 17 15" version="1.1" xmlns="http://www.w3.org/2000/svg" xmlns:xlink="http://www.w3.org/1999/xlink">
    <!-- Generator: Sketch 48.2 (47327) - http://www.bohemiancoding.com/sketch -->
    <title>Page 1</title>
    <desc>Created with Sketch.</desc>
    <defs></defs>
    <g id="1.1---Sign-In---Null" stroke="none" stroke-width="1" fill="none" fill-rule="evenodd" transform="translate(-499.000000, -445.000000)">
        <g id="Group" transform="translate(480.000000, 339.000000)" fill="#656E74">
            <path d="M23.4248959,114.861398 C23.8356554,114.861398 24.1980866,114.704345 24.5121964,114.390235 C24.8263062,114.076125 24.98336,113.713694 24.98336,113.302934 C24.98336,112.892175 24.8263062,112.529744 24.5121964,112.215634 C24.1980866,111.901524 23.8356554,111.74447 23.4248959,111.74447 C23.0141364,111.74447 22.6577454,111.901524 22.355716,112.215634 C22.0536888,112.529744 21.9026752,112.892175 21.9026752,113.302934 C21.9026752,113.713694 22.0536888,114.076125 22.355716,114.390235 C22.6577454,114.704345 23.0141364,114.861398 23.4248959,114.861398 Z M27.8103412,111.74447 L35.8201215,111.74447 L35.8201215,114.861398 L34.2616575,114.861398 L34.2616575,117.942083 L31.1809728,117.942083 L31.1809728,114.861398 L27.8103412,114.861398 C27.4962314,115.779568 26.9405055,116.522549 26.1431472,117.090364 C25.3457888,117.65818 24.4397144,117.942083 23.4248959,117.942083 C22.1442914,117.942083 21.0509612,117.489046 20.1448728,116.582957 C19.2387844,115.676869 18.7857472,114.583539 18.7857472,113.302934 C18.7857472,112.02233 19.2387844,110.928998 20.1448728,110.022912 C21.0509612,109.116824 22.1442914,108.663786 23.4248959,108.663786 C24.4397144,108.663786 25.3457888,108.94769 26.1431472,109.515505 C26.9405055,110.083319 27.4962314,110.826302 27.8103412,111.74447 Z" id="Page-1" transform="translate(27.302934, 113.302934) rotate(-45.000000) translate(-27.302934, -113.302934) "></path>
        </g>
    </g>
</svg>