<?xml version="1.0" encoding="UTF-8"?>
<svg width="24px" height="31px" viewBox="0 0 24 31" version="1.1" xmlns="http://www.w3.org/2000/svg" xmlns:xlink="http://www.w3.org/1999/xlink">
    <!-- Generator: Sketch 49.3 (51167) - http://www.bohemiancoding.com/sketch -->
    <title>Fill 1</title>
    <desc>Created with Sketch.</desc>
    <defs></defs>
    <g id="Dashboard" stroke="none" stroke-width="1" fill="none" fill-rule="evenodd">
        <g id="15.1---Report-Screen" transform="translate(-1336.000000, -398.000000)" fill="#656E74">
            <path d="M1344.95971,403.519357 L1346.9773,401.497598 L1346.9773,417.886473 C1346.9773,418.452582 1347.43506,418.911291 1348,418.911291 C1348.56494,418.911291 1349.0227,418.452582 1349.0227,417.886473 L1349.0227,401.497598 L1351.04029,403.519357 C1351.23993,403.719402 1351.50174,403.819424 1351.76355,403.819424 C1352.02536,403.819424 1352.28677,403.719402 1352.48681,403.519357 C1352.88648,403.118859 1352.88648,402.470355 1352.48681,402.070266 L1348.7253,398.300579 C1348.67703,398.252207 1348.62426,398.209165 1348.5674,398.171452 C1348.54408,398.156285 1348.51912,398.145627 1348.49458,398.132099 C1348.46063,398.112832 1348.42749,398.092336 1348.39108,398.077169 C1348.35876,398.064051 1348.32481,398.056262 1348.29127,398.046424 C1348.26099,398.037406 1348.23195,398.025518 1348.20045,398.019369 C1348.06832,397.993544 1347.9325,397.993544 1347.79996,398.019369 C1347.76846,398.025928 1347.73982,398.037406 1347.70914,398.046424 C1347.6756,398.056262 1347.64164,398.064051 1347.60933,398.077169 C1347.57292,398.092336 1347.54019,398.112832 1347.50624,398.131689 C1347.48169,398.145217 1347.45674,398.155875 1347.43301,398.171452 C1347.37656,398.209575 1347.32338,398.252207 1347.27552,398.300579 L1343.5136,402.070266 C1343.11393,402.470765 1343.11393,403.119269 1343.5136,403.519357 C1343.91327,403.919446 1344.56044,403.919856 1344.95971,403.519357 M1356.93189,406.774177 L1351.6306,406.774177 C1351.06566,406.774177 1350.6079,407.232885 1350.6079,407.798994 C1350.6079,408.365103 1351.06566,408.823811 1351.6306,408.823811 L1356.93189,408.823811 C1357.49601,408.823811 1357.95459,409.283339 1357.95459,409.848628 L1357.95459,425.925549 C1357.95459,426.491248 1357.49601,426.950366 1356.93189,426.950366 L1339.06811,426.950366 C1338.50399,426.950366 1338.04541,426.491248 1338.04541,425.925549 L1338.04541,409.848628 C1338.04541,409.283339 1338.50399,408.823811 1339.06811,408.823811 L1343.96032,408.823811 C1344.52526,408.823811 1344.98302,408.365103 1344.98302,407.798994 C1344.98302,407.232885 1344.52526,406.774177 1343.96032,406.774177 L1339.06811,406.774177 C1337.37615,406.774177 1336,408.15317 1336,409.848628 L1336,425.925549 C1336,427.621006 1337.37615,429 1339.06811,429 L1356.93189,429 C1358.62385,429 1360,427.621006 1360,425.925549 L1360,409.848628 C1360,408.15317 1358.62385,406.774177 1356.93189,406.774177" id="Fill-1"></path>
        </g>
    </g>
</svg>