<svg xmlns="http://www.w3.org/2000/svg" width="233" height="20" viewBox="0 0 233 20">
    <g fill="none" fill-rule="evenodd">
        <path fill="#FFF" d="M40.812.241h4.175l8.888 15.014L62.735.24h3.933l-11.285 18.66c-.198.34-.43.607-.7.804-.27.197-.584.295-.943.295a1.6 1.6 0 0 1-.97-.295 2.584 2.584 0 0 1-.7-.804L40.812.24zm33.728 19.49V.242h17.48v3.405H77.934v12.681h14.113v3.405H74.54zm5.899-8.47V8.39h10.854v2.87H80.439zm23.493-5.792v14.263h-3.259V2.038c0-.626.157-1.122.471-1.488.315-.367.741-.55 1.28-.55.251 0 .494.054.727.16.233.108.476.287.727.537l13.817 13.646V.08h3.259v17.856c0 .643-.157 1.144-.471 1.501-.315.357-.723.536-1.226.536-.557 0-1.077-.241-1.562-.724L103.932 5.47zm32.382 14.263V3.646h-7.434V.241h18.288v3.405h-7.434v16.086h-3.42zM172.708.242h3.34v10.884c0 1.501-.198 2.81-.593 3.928-.395 1.117-1.014 2.042-1.858 2.774-.844.733-1.935 1.278-3.273 1.636-1.337.357-2.958.536-4.861.536-1.885 0-3.497-.179-4.835-.536-1.337-.358-2.428-.903-3.272-1.636-.844-.732-1.463-1.657-1.858-2.774s-.593-2.427-.593-3.928V.241h3.528v10.885c0 .983.122 1.823.364 2.52a3.758 3.758 0 0 0 1.185 1.716c.548.447 1.28.773 2.195.978.916.206 2.047.309 3.394.309 1.346 0 2.478-.103 3.393-.309.916-.205 1.648-.531 2.195-.978a3.758 3.758 0 0 0 1.185-1.716c.243-.697.364-1.537.364-2.52V.241zm30.388 19.49l-4.955-5.416h-7.326v-3.002h8.16c1.24 0 2.173-.335 2.802-1.006.628-.67.942-1.64.942-2.909s-.327-2.211-.983-2.828c-.655-.617-1.575-.925-2.76-.925H188.31v16.086h-3.394V.242h14.06c1.113 0 2.11.165 2.99.495.879.33 1.624.805 2.235 1.421a6.17 6.17 0 0 1 1.4 2.239c.323.876.485 1.859.485 2.949 0 1.626-.355 2.99-1.064 4.088-.71 1.1-1.701 1.89-2.976 2.373l5.898 5.925h-4.848zm12.397 0V.242h17.48v3.404h-14.086v12.681H233v3.405h-17.507zm5.899-8.472V8.391h10.854v2.87h-10.854z"/>
        <path fill="#50E3C2" d="M0 20V0h3.71v20zM15.834 5.477v14.281h-3.22V2.04c0-.626.156-1.123.466-1.49.31-.367.732-.55 1.264-.55.248 0 .488.054.718.161.231.107.47.286.719.537l13.65 13.664V.081h3.219V17.96c0 .644-.156 1.145-.466 1.503-.31.358-.714.537-1.21.537-.55 0-1.065-.242-1.544-.725L15.834 5.477z"/>
    </g>
</svg>
