<svg xmlns="http://www.w3.org/2000/svg" xmlns:xlink="http://www.w3.org/1999/xlink" width="14" height="20" viewBox="0 0 14 20">
    <defs>
        <path id="a" d="M0 49h335v1H0z"/>
    </defs>
    <g fill="none" fill-rule="evenodd">
        <g transform="translate(0 -15)">
            <use fill="#FFF" xlink:href="#a"/>
            <path stroke="#BABDBD" d="M.5 49.5h334v1H.5z"/>
        </g>
        <text fill="#BABDBD" font-family="Roboto-Medium, Roboto" font-size="18" font-weight="400" transform="translate(0 -15)">
            <tspan x="25" y="32">Password</tspan>
        </text>
        <path fill="#BABDBD" d="M7.5 16a1.5 1.5 0 1 1 .001-3.001A1.5 1.5 0 0 1 7.5 16M12 9H4V5c0-1.654 1.346-3 3-3s3 1.346 3 3v1h2V5c0-2.757-2.243-5-5-5S2 2.243 2 5v4c-1.103 0-2 .896-2 2v7c0 1.103.897 2 2 2h10c1.103 0 2-.897 2-2v-7c0-1.104-.897-2-2-2"/>
    </g>
</svg>

