<?xml version="1.0" encoding="UTF-8"?>
<svg width="26px" height="25px" viewBox="0 0 26 25" version="1.1" xmlns="http://www.w3.org/2000/svg" xmlns:xlink="http://www.w3.org/1999/xlink">
    <!-- Generator: Sketch 49.3 (51167) - http://www.bohemiancoding.com/sketch -->
    <title>Group 2</title>
    <desc>Created with Sketch.</desc>
    <defs></defs>
    <g id="Dashboard" stroke="none" stroke-width="1" fill="none" fill-rule="evenodd">
        <g id="2.1---Create-Venture---Null" transform="translate(-687.000000, -442.000000)">
            <g id="Group-3" transform="translate(573.000000, 442.000000)">
                <g id="Group-2" transform="translate(114.000000, 0.000000)">
                    <path d="M1,1 L1,24 L25,24 L25,1 L1,1 Z M0,10 L0,0 L10,0 L10,1 L16,1 L16,-2.22044605e-16 L26,0 L26,10 L25,10 L25,16 L26,16 L26,25 L16,25 L16,24 L10,24 L10,25 L0,25 L0,16 L1,16 L1,10 L0,10 Z" id="Combined-Shape" fill="#656E74" fill-rule="nonzero"></path>
                    <g id="Group" transform="translate(12.500000, 12.500000) rotate(90.000000) translate(-12.500000, -12.500000) translate(7.000000, 7.000000)" stroke="#656E74" stroke-width="2">
                        <path d="M1,5 L11,5" id="Path-4"></path>
                        <polyline id="Path-4" points="5.02401127 10.0240113 -4.4408921e-16 5 5.02401127 0.0131057187"></polyline>
                    </g>
                </g>
            </g>
        </g>
    </g>
</svg>